<svg width="673" height="412" viewBox="0 0 673 412" fill="none" xmlns="http://www.w3.org/2000/svg">
<path d="M500.001 1000C306.694 1000 139.02 890.307 55.8173 729.775C46.3681 711.592 38.0419 692.734 30.8583 673.326C10.8994 619.326 0.000915527 560.939 0.000915527 500C0.000915527 439.061 10.8994 380.674 30.8779 326.674C38.0419 307.266 46.3681 288.408 55.8173 270.225C139.02 109.693 306.694 0 500.001 0C527.061 0 553.612 2.14258 579.491 6.30664C730.858 30.4687 859.552 122.572 933.327 250.389C975.735 323.836 1000 409.082 1000 500C1000 590.898 975.757 676.123 933.349 749.572C859.593 877.389 730.899 969.51 579.532 993.693C553.634 997.857 527.061 1000 500.001 1000Z" fill="#F0F0F0"/>
<path d="M579.531 993.694C369.756 927.653 217.611 731.593 217.611 500.001C217.611 268.409 369.734 72.3682 579.49 6.30768C730.857 30.4698 859.551 122.573 933.326 250.39C975.734 323.837 1000 409.083 1000 500.001C1000 590.9 975.756 676.124 933.348 749.573C859.592 877.39 730.898 969.511 579.531 993.694Z" fill="#F6F6F6"/>
<path d="M721.002 827.651C540.043 827.651 393.35 680.958 393.35 499.999C393.35 319.018 540.043 172.325 721.002 172.325C802.002 172.325 876.125 201.714 933.328 250.386C975.736 323.835 1000 409.081 1000 499.999C1000 590.897 975.758 676.122 933.35 749.571C876.145 798.265 802.002 827.651 721.002 827.651Z" fill="white"/>
<path d="M525.043 499.999C525.043 608.224 612.777 695.958 721.002 695.958C829.227 695.958 916.961 608.224 916.961 499.999C916.961 391.774 829.227 304.04 721.002 304.04C612.777 304.04 525.043 391.774 525.043 499.999Z" fill="#F6F6F6"/>
</svg>
