<svg width="867" height="853" viewBox="0 0 867 853" fill="none" xmlns="http://www.w3.org/2000/svg">
<path d="M353.554 1060.66C216.865 923.972 175.867 727.844 230.546 555.497C236.722 535.958 244.169 516.736 252.813 497.933C276.884 445.636 310.463 396.644 353.554 353.554C396.644 310.463 445.636 276.884 497.947 252.827C516.737 244.169 535.958 236.722 555.498 230.546C727.844 175.867 923.972 216.865 1060.66 353.554C1079.8 372.688 1097.05 392.977 1112.41 414.221C1202.36 538.339 1228.23 694.466 1190.02 837.013C1168.07 918.935 1124.95 996.372 1060.66 1060.66C996.386 1124.94 918.979 1168.05 837.056 1190C694.523 1228.23 538.383 1202.37 414.25 1112.44C392.993 1097.07 372.688 1079.79 353.554 1060.66Z" fill="#6800D6"/>
<path d="M414.249 1112.44C312.613 917.406 343.667 671.188 507.427 507.428C671.187 343.668 917.376 312.613 1112.41 414.221C1202.36 538.339 1228.23 694.466 1190.02 837.013C1168.07 918.935 1124.95 996.372 1060.66 1060.66C996.384 1124.94 918.978 1168.06 837.054 1190C694.521 1228.23 538.382 1202.37 414.249 1112.44Z" fill="#942EFF"/>
<path d="M631.694 1095.06C503.737 967.105 503.737 759.65 631.694 631.692C759.666 503.72 967.122 503.72 1095.08 631.677C1152.36 688.953 1183.99 762.147 1190.02 837.012C1168.07 918.935 1124.95 996.372 1060.66 1060.66C996.387 1124.94 918.981 1168.06 837.057 1190C762.176 1183.99 688.97 1152.34 631.694 1095.06Z" fill="white"/>
<path d="M724.815 724.814C648.288 801.34 648.288 925.415 724.815 1001.94C801.342 1078.47 925.416 1078.47 1001.94 1001.94C1078.47 925.415 1078.47 801.34 1001.94 724.814C925.416 648.287 801.342 648.287 724.815 724.814Z" fill="#942EFF"/>
</svg>
