<svg width="1400" height="622" viewBox="0 0 1400 622" fill="none" xmlns="http://www.w3.org/2000/svg">
<path d="M-3.86238e-05 700C-3.86238e-05 429.371 153.571 194.627 378.314 78.1429C403.771 64.914 430.172 53.2574 457.343 43.2004C532.943 15.2578 614.685 -3.86238e-05 700 -3.86238e-05C785.315 -3.86238e-05 867.057 15.2578 942.657 43.2277C969.828 53.2574 996.229 64.914 1021.69 78.1429C1246.43 194.627 1400 429.371 1400 700C1400 737.885 1397 775.056 1391.17 811.286C1357.34 1023.2 1228.4 1203.37 1049.46 1306.66C946.63 1366.03 827.285 1400 700 1400C572.742 1400 453.428 1366.06 350.599 1306.69C171.656 1203.43 42.6864 1023.26 8.82931 811.344C2.99959 775.086 -3.86238e-05 737.885 -3.86238e-05 700Z" fill="#6800D6"/>
<path d="M8.82747 811.343C101.285 517.657 375.77 304.655 699.998 304.655C1024.23 304.655 1298.68 517.627 1391.17 811.285C1357.34 1023.2 1228.4 1203.37 1049.45 1306.66C946.628 1366.03 827.283 1400 699.998 1400C572.74 1400 453.426 1366.06 350.597 1306.69C171.654 1203.43 42.6845 1023.26 8.82747 811.343Z" fill="#942EFF"/>
<path d="M241.289 1009.4C241.289 756.059 446.659 550.689 700.002 550.689C953.374 550.689 1158.75 756.059 1158.75 1009.4C1158.75 1122.8 1117.6 1226.57 1049.46 1306.66C946.631 1366.03 827.287 1400 700.002 1400C572.744 1400 453.43 1366.06 350.601 1306.69C282.43 1226.6 241.289 1122.8 241.289 1009.4Z" fill="white"/>
</svg>
