<svg width="645" height="400" viewBox="0 0 645 400" fill="none" xmlns="http://www.w3.org/2000/svg">
<path d="M145.001 0C338.308 0 505.982 109.693 589.185 270.225C598.634 288.408 606.961 307.266 614.144 326.674C634.103 380.674 645.002 439.061 645.002 500C645.002 560.939 634.103 619.326 614.125 673.326C606.961 692.734 598.634 711.592 589.185 729.775C505.982 890.307 338.308 1000 145.001 1000C117.941 1000 91.3902 997.857 65.5113 993.693C-85.8559 969.531 -214.549 877.428 -288.325 749.611C-330.733 676.164 -354.999 590.918 -354.999 500C-354.999 409.102 -330.754 323.877 -288.346 250.428C-214.59 122.611 -85.8969 30.4902 65.4702 6.30664C91.3687 2.14258 117.941 0 145.001 0Z" fill="#F0F0F0"/>
<path d="M65.4707 6.30554C275.246 72.3466 427.391 268.407 427.391 499.999C427.391 731.591 275.268 927.632 65.5117 993.692C-85.8555 969.53 -214.549 877.427 -288.324 749.61C-330.732 676.163 -354.998 590.917 -354.998 499.999C-354.998 409.1 -330.754 323.876 -288.346 250.427C-214.59 122.61 -85.8965 30.4891 65.4707 6.30554Z" fill="#F6F6F6"/>
<path d="M-75.9999 172.349C104.959 172.349 251.652 319.042 251.652 500.001C251.652 680.982 104.959 827.675 -75.9999 827.675C-157 827.675 -231.123 798.286 -288.326 749.614C-330.734 676.165 -355 590.919 -355 500.001C-355 409.103 -330.756 323.878 -288.348 250.429C-231.143 201.735 -157 172.349 -75.9999 172.349Z" fill="white"/>
<path d="M119.959 500.001C119.959 391.776 32.2252 304.042 -76 304.042C-184.225 304.042 -271.959 391.776 -271.959 500.001C-271.959 608.226 -184.225 695.96 -76 695.96C32.2252 695.96 119.959 608.226 119.959 500.001Z" fill="#F6F6F6"/>
</svg>
